<svg version="1.1" xmlns="http://www.w3.org/2000/svg" xmlns:xlink="http://www.w3.org/1999/xlink" viewBox="0 0 172 172"><g fill="none" fill-rule="nonzero" stroke="none" stroke-width="1" stroke-linecap="butt" stroke-linejoin="miter" stroke-miterlimit="10" stroke-dasharray="" stroke-dashoffset="0" font-family="none" font-weight="none" font-size="none" text-anchor="none" style="mix-blend-mode: normal"><path d="M0,172v-172h172v172z" fill="none"></path><g fill="#151617"><path d="M90.3112,7.16667c6.4388,10.75 0.69987,23.6556 -2.88347,35.83333c-3.58333,12.17774 -0.69987,20.07226 11.47786,18.64453c15.76107,-1.45573 21.5,-4.3112 33.67774,-4.3112c12.9056,0 15.76107,4.3112 16.48893,7.89453c0.69988,5.01106 -2.1556,7.86653 -2.1556,10.75c0,2.85547 10.75,4.2832 10.75,13.60547c0,10.02214 -8.5944,9.32226 -8.5944,12.17774c0,2.88347 7.16667,4.31119 7.16667,12.17774c0,7.89453 -10.05012,8.6224 -10.05012,12.20573c0,3.58333 3.58333,4.2832 3.58333,9.29427c0,5.03906 -10.02214,15.78906 -45.85547,15.78906c-60.91667,-0.72787 -53.75,-15.0612 -82.41667,-15.0612v-53.75c15.0612,0 14.33333,-12.9056 24.35547,-22.92774c10.05012,-10.75 23.6556,-34.4056 27.23893,-52.32226c2.88347,-12.17774 13.63347,-6.4388 17.2168,0z"></path></g></g></svg>